# xmcd
#
# Track frame offsets:
#	150
#	17743
#	34541
#	51501
#	67625
#	81538
#	96669
#	112065
#	125062
#	141167
#	155226
#	170459
#	185283
#	197885
#	214895
#	228660
#	238203
#	250814
#
# Disc length: 3557 seconds
#
# Revision: 0
# Processed by: cddbd v1.5.2PL0 Copyright (c) Steve Scherf et al.
# Submitted via: audiograbber 1.83.01
#
DISCID=130de312
DTITLE=M T M - M T M 033
DYEAR=2009
DGENRE=Country
TTITLE0=01-Michael Thomas - Speed of llfe
TTITLE1=02-Natalia and Grasscountry - You move me
TTITLE2=03-JC Andersen - Missing Me
TTITLE3=04-Kim Mclean - Aint No Glory
TTITLE4=05-Adam Stone - Country Sunshine
TTITLE5=06-Lisa Dudley - Buffords Heart
TTITLE6=07-Billy Ryan - A Different Kind Of Crown
TTITLE7=08-Michael Kosterman - I Love Her Anyway
TTITLE8=09-FMB - What A Party
TTITLE9=10-Pete Schlegel - Liquor To Like Her
TTITLE10=11-Razzy Bailey - Hank Wrote That
TTITLE11=12-Leon Venerable - Where I Call Home
TTITLE12=13-Ray William Roldan - Misery To Mexico
TTITLE13=14-John Foster - Handshake Town
TTITLE14=15-Rustie Blue - Shape Up Heart
TTITLE15=16-Waymores Outlaws - Thelma
TTITLE16=17-Jim Cristaldi - True Love
TTITLE17=18-Deborah Allen and Billy Ray Cyrus - Satisfied Woman Satisfied Man
EXTD=
EXTT0=
EXTT1=
EXTT2=
EXTT3=
EXTT4=
EXTT5=
EXTT6=
EXTT7=
EXTT8=
EXTT9=
EXTT10=
EXTT11=
EXTT12=
EXTT13=
EXTT14=
EXTT15=
EXTT16=
EXTT17=
PLAYORDER=
